/* XPM */
static char * murr_xpm[] = {
"128 128 8 1",
" 	c #060203",
".	c #083149",
"+	c #032234",
"@	c #02456B",
"#	c #065177",
"$	c #023A5F",
"%	c #106189",
"&	c #087AB5",
"                                                                                           +    +   ++     +                    ",
" ....$..........$.......$..#.@.++..$.+++++........++...+++....++ ++++++++++..+++.....+++.+.++.+  ++++++++++..++...+.++.+..++.$..",
" +&&&&&%&&%&&&&&&&&&&&&&&&&&&&&@ .&&&%&&&&&&&&&&&&&&&&&&%&&&&&%@ +&&&&&&&&&&&&%&&&&&&&&&&&&&%&&$ +&&&&&&&&%&&&&&&%&&%%&%&&&&&&&&",
" .&$#%%@%%@@@$.$@##@##@%#@%@%$@+ .&#@%#%%$#%.%%##@$%##$@@$@@#@$+ +%#%%@$%$%$@@@@%%#@%%####%###%+ .&@%%%#%@#%%%%%%$#%@%#@###@%%#$",
" .&##%%%%#@#@%$##@%#%%%##@@%##@+ .&@#%%#%%#$#@#$%#$$.#%@@$@##$@+ .%##.#$#.@@@#@%#@@@@@$@@$###@#  +%#$@#$$#@%%%#@$%#@#@@#%%$%$@#$",
" +&##@%@@@@%#@$@%@%$@$@%%#@#@%#. .&%%@@@##%@%%%%%#$%@@%#%$#%##@+ .&$%$@#@#@#$..$%#@%%#@%%###%#%+ $&#%%%%#@##%##%#%#%####%####@#%",
" .%@###$$$#$@@#@#$#$%#@@@$@####. .&%$.@@@@.#$.##@$$##@$$@@#$@#@+ .%#$#$@$#$#.$%#%@@#@@@@@%@%%$$+ .&%#@#@%#@#%@$%##$@@#$@###@##$@",
" .&@@%@@#@@##%$%#%#%##.@$%@$$#%+ $&###%%%@%##%#%##%#$@%@%%@@@%#. +&#$%###$$%#@%@$%%@@@#%%###@%#+ .&@$$@@@##$@$#%$@%#%%%%##@#@#%@",
" +&@@#.#$@@@$#$$#$###@@%#$##@$#. .&@#$%#@#%%%@%%##$%%#%%##@.$@#+ .&@@$@@$@$@##$$@##@%%$.####$$@+ .&@$#$@$$#@$$..#@.$#$$#$#$%##%%",
" +&%#%@#%##%%##@@#@$@##%$@##%#%. +&#@$@@$@%@@#@$$$@@#@#@@$#$@#%+ .&@#%%@$#@%#%@$##%@%@%%#$%%$##$ .&@##@%#$#@@%$@@#@@#@@@#%#@#%%$",
" @&#%%%&%%%&$%%#@%#%%#@%#@#%%%#+ .&%%%@##%%@%%$#@@%@$$##%$@$#@$+ +%#$##@@@%%%%@@@%$.@#%@@@$@$##+ +&%%%%#$@@@#$$@%#$@###%%%$#%@#%",
" $&%#$@%##%%%@@#@@$$@%@#$##$$#$+ +&#.@##%%%##@@@@@%#%%###%$####. +&##@#%#@#@%@$$%###%%##$@$%@@@  +&%@#.#@@%%#@#%%#%#%@#@@@@#%%@%",
" +&#@@@@#@%%@#@%@##%@@#$$.$#%%%  +%$$$@#@#$@@##$#%##@#@@.@#$#$#+ .%%#%$$#@%.$$@@$###%##@#%$@##@+ .%@##@$@@@$#@@$%%@@%###@%%#@$@#",
" .&%%%%%#$@$#%$%%@##%@#@#@$@$$$+ .&$.#$#@@#$@@@.$%##@%@###%@@#%+ .&###@#%#%@#$%%#%%#####%#%@@#@+ .&##$.$%%@@###@#%###%@%%#%%@#@#",
" .&#%@###$%%#$#@#$@##@#%%%#%#%#+ +&##@@@%%%#%#@#%%%%@%%@#%%$#%#. +&%####%%%#%@%%#%%#@#$#$###@#@+ $&%#%%@##%%%@%%%%%@####@%%%@#%@",
"  $ +++ ++++..++++++ ++.++ .++++  $+..+.+++  +++...+++++.+..++.   @++ +++++.+++...+.+.+.+++ .+++ +@+++..++++++++++..$+++.+.++.+.",
"                                                                                                                                ",
"..++....+......+ +.......+...................$.  +....+..++++....+...+.$....++++ ++++.+....++..+++++++++++++.++  ++++++.++..++++",
"&&&&&&&%%&&&&&&$ .&&&&&&&&&&&&&&&&&&&&&&%&&&&&&$ .&&&&&&&%%&&&&&&&%&&&&&&&&&%&&# .&&&&&&&%&&&&&%&&&&&&&&&%%&%&%. +&&%&&&&%&&&%%%",
"@$@#$#.@$.$@@$@  +%$.$$%#$##$%@$$$.#@$@$$#.@$#$. .&%@#@$%%@@#@#@%@#%@#%#%%%%%%%$ $&@#%%%#%%%%$%%@%%%#@%#%%##%##+ .&##@@#%$$%@#$@",
"@#@##@$##$#@#$$+ +&@$$$#%$%#%##$@#@#$@#$@#@@$#@+ +&#@%%@@#@%@@#$##$@%@%%%%#@%@@+ .&$#%$%%%%%$@#%$@$#@%##@%@#$@#. .&#%$%%#@$@$$@%",
"$@#####@%@##$#$. .&%##%%#...$$#@#@%%%#%#%%#@###+ .&%@#@#@###%@%%%%@%#%#@@%%%%%#+ .&@%#@#@%@@#$#$@$@%$@%$@@@$$%$  .&@#@@#$@$$$$$+",
"#@%@%%#%#@#%@#%+ $&##%%@%@###%%%%%@@%%%@#@@#@%%. .&#%@#%#%%$%#%%##%##%#%#@@%#%%. #&%#@%%%%%%#$@@#%#%%%%##$@@%$%. .&$@##%#%$$##@#",
"%#@@$$%%#@@#@#%+ .&$%@#@##$@#$$@@###%@@.@#%#%$#+ +&$@#$#@@@$%#@#@$@#@@%@$@#%%#@+ .&%##@$%$$###$%%%#%####@#@#%%@  .&#%%#$#$%$@@$#",
"%$$@@#$%#%#$#%%+ +&@$$%#%$%#@$@%$$$#%$$@@#.#$##  +&%$$@$.%%#@####$@#$%%#%%@%$%@. .&###%##%%%@#@%%@%%#%#$@#%@%%#+ +&@$@#%@#%$@%%$",
"#.$#%#@%@#%%#%@+ .&.$$$%%#@##%@%$@$$$.@@$$@$.$#  +%@.$#@$#@$#..$@##$@#$$@.$#$@$+ .&@%%@@##%%##@@%$#%@#@@$$@@#@@  .%#@@##%#%####%",
"@@##%@@%%#%@@%@+ .&@#@@###@#@@@##%#%@@%#$#$##@%. +&#$#@%@%#$@@#%%$#$#@@%#%%%$$#. .&@##@#$$@$#$$#@#%@%#@@##%#%##+ .&@@#@#%#$##@#$",
"$%#%%#$@@#$#@%$. .&@%%#%%##$@@$#%%#%#@##$@$#@@$+ .%#%#%#%#%%@@%%@%%%%%%$##%%@$%+ .&$$#%$#%$@$#$@@@$.@@$@%@%#$@$+ .&$@%$@$$@%%#$%",
".$%#%@$##$$%%@$+ +&$@%@##@.#$##@$#$.#@%%#%$%###+ .&#@$#$$#$@@@@%$#@%@##$$##$#$%. .&%@#%%##.##$###.@.$..$@#@$#@@+ +%#$#$#@@@#$.@$",
"%###@#%%#$$%%#$. .&$$##$@#$#%$#$%$@#$##$$$$$$$#+ .&.$@@.%#$$.#@.@@@.$..@#$.###@  .&#%@#@@$#%%@###@#@#%@#@%%@##%. .&%%@#@#%@#$###",
"%%%#%%#%##%#%%%+ $&%#%##%@%##%@$$####@#@$@%%@%%. .&##@@$@%%$@@%$@#@#$@%@$#$$@##. .&$####$#####%%@##@#%%@##@@$$%  .&@$$$%%%@##%#%",
"++.+.+++.....+ + +@.+.+.+.++.+++++..+.+++.....++  #+++...++.++.+++++++++.+.+..    #. ++++.+++.++++ ++++   +.+++   #.++++.++..+..",
"                                                                                                                 +              ",
" +$..+.....+..........+...+.$$.  ...$....$......$.$..++.+..$...  +@.+.++.++...+.+...+....+.++++  +.++++.+..+...+...+.......+....",
" +&&&&%&&&&&&&&&&&&&&&%&&&&&&&&@ .&&&&&&&&&&&&&&&&&&&&&&&&&&&&&% .&&&%&&%&&&&&%&&&&%%&&&&%&&%%%# +&&&&%%&&&&%&&&%&&%%&&&&&&%%&%&",
" +&%@.@####@@@$$$###$%%#%@%#%#$+ $&$#$@#@$@%#@%@%@%%@#%##$%#%%#+ .%#@$@#@#%@@$%$#%@$@%%%$%##@##. .&##%%@#%@$@@$#%%.$#%#$###$#@%#",
" .%%#$#%#@#%$#####@###%#%%%#@#%+ .&@.@####%###$#@#$$@$@#$$#%$#@+ .&#%$#@$$#@$$#@##$@%###@##@%#%$ .&$#%##%%%$@%@%%@@##%@$##@#%%$%",
" +&$$.$@%%$$$$$%#@@@%$%#$#@##$@. .&$@##%$@%###$$$@@$.$$@$@%%#%%+ .&##@%%##%#$##$$@.%$.##@$#@%@@+ .&@#@@@$##$$#$@$..@#@@$@@@#@@@$",
" .%#@@#%$@$.@@$#$%###$.$%#$#$$#. +%$%@#@@#####@#@@@$%@@@##@@$$@+ .&##%%%#%%%#%#@#%##@@%##$##@.@+ +&$$##.##$#$#$@$#@#@#.%%@@@##@%",
" .&@%#$@$$$#@%##$@%@.@$@#@@#.#%+ .&$@%%#%%%%$$.$#@#@#%%%##%%#%%. .&%%###@.@@#%#$$#%%#$@@@#$%#.$+ .&@.@$@%%%@#%@@%%%#@@@@@@%$%##$",
" .&$$%##@##@####%@#$@$#%####$@#+ .%@%@@@$$#%#$@%%#%%@%%%@@@#@#%+ .&@@##$%$@%#%@$#####@#%##$$#.@+ .%#$@#@##@$@###%#.@#@$@$##$@##.",
" .&#$@@@%%$#@@@#%%$#%#@#%%%###%+ .&@%#%%%%%%%%@%%%##@$$@$@$@$@@+ .&@#@.@%$$#@+@$%##.#$#%####%##+ .%%%####@%%%%@@##@##.@%%@#%%$%#",
" .&##$#@@#$##%$@@#@@@$@@@@$$#%@+ .%$@$#%@#%#.%#$#$@@@%%%#%%%%#@. +&%@#%###%##@@#%$@.@@%%%#$#%#@. .&##%##%%#%%#%##%@#%####%%%@#@%",
" .&%%@%%#@#%#$#@#$#%$$##%%%##%#. +&#%#%%#%%%%##@@###%%%#%%@#@%@+ +%@%@@$%@$$%@%#$#%@#@##$@#@$.%+ .&#%#$@@@#%@@@@#.@#%%%@%##%@@@$",
" +&$$@$$.$$#@.$.$$$$$@$@$@#@%%$+ .&%###%#@$@%#%$%@@$#%%#$#%@#@%+ .&%%##%#$$#@$$@$$@$@#@#+$###$@. +%%###@#$@#@@$%@.$#@..@#@.#@@%$",
" +&.$@@#@#@%@#@$#%%#$#%#$#%%#@@+ .&%%@###@@%@%$#@@@$#$#$.@$%%@$+ +&%#@#%@$@#$@#%##%%@%@%.@@@@$%+ .&%#@@%#@%%#$@%@$#$%%$$$#$##%#%",
" .%$#@$#$$$%@%%%@%@$@#$#@%##%%#. .%%@$@$#$##$%#@@$#$$@#@$@@%#@#+ .&@@$###$#@##%%%#@@#%%@#@###$@+ +&##@%##@@%#@#$@$#@%%#%#%$#%$%%",
"  @.++.$...+++.+..+++++$+...++.+  #..++.++...++++++.$+..+.+..+ +  #++++++.....++...++.+++.++  +   @+...++.+.+.+++++++ ..+..+...+",
" +                                                                                                                              ",
"..++.+++.+++.++  +++++..+++++++++......++++++++  +++.++++++..+++.++.+.++++.+++.  +......+++..+....$++.....+....  +....+++.++++++",
"&&%&&&%&&&%&&%%$ .&&&&&&&&&&&&&&&&&&&&%&&%&&&%&@ +&&&&&&&&%&&&&&&&&&&%&#%&&&%&&@ .&&&&&&&%%&&&%%%&&&&&&&&&&&&&&@ +&&&&&&&&&%&&&&",
"%#%#@$$#%##%%##+ .&###%##@#@@#$%#@@#%@$@@#%%@%@. .&%%%%%#@%#@#@%#@@#$@..#@@@$@@+ +%$#$#@##@@@@##@@$$.$@%%$@##@#+ +&@$@@$@#@$@#%%",
"#@@@$$@##@#%##%. .&%%%##%%%%%#@@@#@@%$%%%@%%@##. .&@%#$#$$%#$%$#@$@#%#@$$@@$$#@  .&@$#$#$$$@@$##@##@#$%#$%%%%#$+ .&%$%@$@##$###%",
".%%@@@@@##$$#$$+ +&##@$@#$@#@#%#$$@#@$$@%.$.$%@. +%@%$@$@$@@$$#%@%%%@#$@##@%@%@. .&%%$####%$%%@##$$$#$$####@.$$+ .%$$$$$#@%@#%##",
"@@###@@######@@+ +%#$#$@%.$#$#@$##$@%#@@@$$@@#@+ .&##$%$@####%%%#####@@#@%#@@##+ .&#$$@#%@$#%#@@#@###$##%#$##%#+ +%$$$#%@#%####@",
"#@$###$%$$@%$@#. .%%%%%#%##%%%%#%%######%#%&%#%. .&@##%#%%#%%@@%$##@$@$#@$@%@$#. .&%$@#$@@%@$##$.###$##$@@$@$#%. +%#@#@###$@%@@#",
"$@@$$@$##%%@%##+ $%$$$$$#.$$@@###@@####@$@%%#$$+ +&#@$@#%@$#$$@##@#@@@#@##%@#%%. +&#%@$#%%$#%@@@@#%%#%##@#$##$@+ .&#@$%%$#$%@#@@",
"#%#%#%%@##@%###+ .&@@$#@@#####$@@#%%$@%%$#%$$#@+ +%#$#$#$#@..$@@@@$$##@@@.#@@@@  +%@@$%#%#$#@$$%%#%###@@@$%@#%@+ +&#@@%#%#%%%#@@",
"@#%###@@%@@$#%$. .&%%%%#%%%%%%$%#@#@##$.@@%##%#+ .&#%#$#%@$%@%%%%@.@#%@%@$#@#%#  .&$.$$##+@#@@@##@@#$@@##$#%#@@+ .&%@%#%#%#%%%@%",
"%$$#.%#$%#%@##%+ .&%$@%#%#$%%%$@$@%%%%%##@%@#%%. .&@###%%@##@%$#%#@###%#@#%%##@. .&$@@@###@#@%%%@#%%%#@$$@#%@@@. $&#%$#%$.#@#$#$",
"%$%%@@#%#$$#$##+ +&$@@#@@@#%@%%@@%@%#@#$%#%@%@#. .&@@#@#%@@$###@@@$%%#@@#%@###%. .&%###%%%@##&@#$@%%%@%%%%@%##%. .&%%%#%%#%%#%%#",
"$.@#@@$$#@$#@$$. .&@%@$..@@#@$.#@@$@.$#$$###$$$+ +&@@#%#@%$@@%$@%@%@%###%%@@@#@+ +&%%#@%%$#@@##$@@@#$##$@%@@#$@+ .&.%%@$##%%%@#@",
"$@$@@##%@$@#%@#. .&$#$@###%@###@#@#$#%%%##%@$##+ +&#%%%@%##@@%%#@$%%@$@%##@%%@#+ .&%#@#@%##%#@@@%#%@#%%@@@#%%#.+ +&.@##@%$$$#$$#",
"..+....$+$..@.$. +%++...+.+$+++.. ..+.+++ ++++++  @++++++ + +.+  +.++++++ +++ +   $++ +++ +. ++.+..++..++....++   %++++..+....++",
"                                                                                                                                ",
" +$....$.....+..++....@.$......  ....$..$#.$....$.....$....$$@.. +@$.$$@.............$....$..$.  .++..+.+++..+++.++.......+.....",
"+.&&%&&&&&&&&&&&&&&&&&&&&&&&&&&@ .&&&&&&&&&&&&&&&&&&&&&&&&&&&&&# .&&&&&%&&&&&&&&&&&&&&&&&&&&&&&# .&%&&&&&%%&&&&&&&%%%%&&%%&&%&&&",
" +&@$%@$@@$$@#$@#@#@#@.$#$#$$$#+ +&$@$$%%#$%@#$%@$$#%%%###@@##%. +&%###%@$#%%@%%@#@.$$@$###.$$@  .&$@#@%#@@#@$%%%%%%$$###$####.@",
" .&#@%@##@@#%@$@@@#$#@$@$#$###$+ .%#@$@##%%@#$$@@##%%@##$##@%$@+ .&#%#%#%%#%@##%@%%%#%#@@@@$@%%+ .&%%$@$##%%%##@%##$$#%%##@#$$#@",
" .&$##$@#@$#@$@@$@##%%#@%######. .&%@$@##.$@$$#@@$$$%$$@#@$@@#@  +&$@$@%@@#$@@#$$$$$@@%%#%@@#$#. .&##$$$#%$$%$%$%#$###%#$.$##%@@",
" .%@%#%%%$%%%#%%@%%#%$$#@##%#$$. .&%#%%###@#%@%#@%%%@@#$$#$#@#$+ +%#@@%#$$%.@#$@#$@.$#$$@##$#@@. +&@.#@%#%@@#@@%#@@##%#@$@##%#@#",
" +&%%%%%##@##@#@%@#@@$@@###$@$$+ +%@##%#%@%@#@@%@%$##%@@##%#%$%. .&%##%%@@@###$##$@##%@####%#@#. .&#$$###%#@#@@%##@#$$@$%%@##$@@",
" +&#%#@#$%@#$%@###%$$#%#$@.@$$@+ +%$@$#$$@#%@%%%#$@%@#@$$@%@$$$+ .&##$$#$##@$@@%%%@#%%@#%@%#%#%+ .&.$@@%$%@@%%%##.@@#@$$$$$##@@%",
" +%@@$#@@%##%@#$##$%@#@$$@$#$$#. .&@###$%@%@%%%@#$@%%@%.#@$@##@. .%$@.@%$$#@$#@%#$.$.$#@%#@@%#%. .&%#%%#%%#$$#%@$@%%%@@##@##@$$@",
" +&@#$@#%$@@##%@%#@#%%%#%%@#%#%. .&%#@#####%@@#$@##@@@#$#%%#%##+ .&##$%$#%##@##%%@%###@@@#@$#@#+ +&@%#.@@@#$##%#@@@@%#%%%####$@@",
" +&%@@%%$@%%%##@##%@##$%#%%####. .&$%@%@@@#%@@#$@@%%$$####..@$%+ .&@@@.$$#@@$@#$$##@.$%@$$..$..  +%$##$@%$$@@@@.@@$$$$..@#$@%@%#",
" +&$#$@@#@%#@#.$$@#@$%.@$#$@$@@+ +&@@#$$@#@#$$@.@$##@@$@@#$$$$$+ .%$@$@@@#%@@%@$##@#@@@#$@$$#$@+ +&@@@##%@$$$$$$$#@%#@$@$#$%@##@",
" +&#$@#@@%#@$#@@#%#@@#%##@###@$. .%###@$#@$@@#%#$#@%@@#@$.$#$##+ .&@$@#@##@%##@$$#%#$@%@%%%##%@+ .&@@@%@$$$$##$@####$#.#@##%#%@%",
" +&.$%#%#%@$@%##%#$#@%%%%%#%$#@. .&%#%%@##%#@####%#%%$@%%#%%%%%@ $&%%%%#%%#%%%%%%#%#$@%@#%###%$. .&%%%$@$@$@$@.@@#@.$$.$@@@.$$@.",
"  @+++++ ++.+++ . +.+.++.+.+ +++  @...++++++.++ ++..+++++++++..+ +@++++..++.+...+.+++++.++++.+++  $++ +++ ...+ +++ +.++++.++++++",
"                                                                                                 +                              ",
"..$.+......+...+ ........+........+...++++++.++  +++++++++++++++++++++++++++++.  ++++...+++.++++..++....$+.+++.  ....+.........+",
"&&&&&&&&&&&&&&&% $&&&&&&&&&&&&&&&&&&&&&%&%%%%&%@ +&%&&&%%&%&&&&&&&&&&&&&%%&&%&&# $&&&&&&&&&&&&&&&&&&&&&&&&&&&&&% +&&&&&&&&&&&&&&",
"##$#@%#$$$@$$@$. +&%@#@@$$#@@$#%@%@#@#@%@%#%@##+ .&%#@$%#%#@##@#$$$##@@$@@%#$@#  .&$$@##$$%@$$#$#@@$##$#@@$$@$%. +%$@.$%$@#$$@##",
"$@$#$##$$#@#%#%+ +&$#$.$#$$$$@%#@##$@#@#####%@#. .&#%###%#$@$#%%$%#@$#@#%%@#$%%+ .&#@%#%%###$%#@$%%@@$$@@$$@@%%. +%#@@@##%%%%%#%",
"$@%$#@%@%#%@#%#. .&%%#$@#@%#%##%%@@%%%#@%%%%#%%+ $&%@#%%%##@#%%#$#%%%#%#%%@#%##+ .&$@#@$#$%$@@#@@$@#@#$####@@$@  +%$@$$#%%@@#%#@",
"@#%@$$@@#%%$@@$+ .&@#@%%%@%@#%@#@$#@%#%@@###$#%+ .&$%$@##@%@%#%@$#%#%%$#%#$@@#%+ $&#%%#%%$@#$%%#%%%%$@%#%%#%#$#+ +&%%%#@%@@%%$%#",
"###@#$$@$.$.@#$. +&$#$#@@.$@#$@$#.$@#@@$$@#@@%#  .&..$#$$@#$#.$####$%@@%@.$@#%$. +&$$@##@@#%@%@%####%##@%%%####. .&%@@#%$###%@%#",
"#@##%@%#%#@%%@@+ .&%#@##$#%#%%@%%%@%#@@#%##%%@%+ .&@@#%#@#%%#%@%@#%%@##%@$@%%%%. +%@$$###@@@$#@@#%@#%#@$%#.%%#%. .&%%@#$%#%%%#$%",
"@#%#%.%%%$@%%$#. .&$#@#@$#@$$#$@@#@@#@#@#$%#$$#+ .&$$##@#@%@##@$@%#$#@#####%@##+ +%%@#$$#.@%#$@@@#$$#@$@#@@##@@+ .&%%%#%@@@%#@$.",
"%%%#%@$%@@@#$%%+ +&@$$@.@%#.@##$$$%$%$%%$$@%#&%+ .&#%#@##%#%@##$#$#@###$#%%%@%@. .&##%#@#@#%$@#%%#$@#$%%%#%@#$%. +&#####$@#%@##@",
"...#$$.$#%@$@@#+ +&#$###@@$####$@@@#@@@@.@#@###+ .&$##@%@%@$#@.$@#@#%#%$#$$.$.@+ +%##.@$#@###.$#@#@%@##%#.$%@@%. +%#@$#$$@@#$.$@",
"##%@@$$#@@@#%@%+ .&%@##$#%%%%%#%$#%##%%@$#%#@@@+ .&%#@$@$#$#.$$..$##@@#$$$$$$#@+ +%#%%@#%%%%##$#$@#%###%##@%%#%+ +&%$#%#$@#%$##%",
"%%%#@$@%%@@$%#%+ $&@#@.$#@$@@@#$.#%#%$%$@#$@@@$+ +&@@$%%@%@@@#%%$$$#$@@%%$@#%%#. +&#%@#@@$$@+$.@#@##$$##.@@@#@@. +&##@$$##%#.##$",
"$.@@@$%@#@@#$#@. .&@%#$#%#%%$#%#%@###@@###%$%#@+ .&%$@@#@%$#$@%#$###@#%%#@@#%@%+ +%@#.$@.##..$@@#@%$@%#..$$%.@@+ +%@$#@@#.#$%@@@",
"....++...+..++$. +#+.+.+++++....+++++++.++..++.+  #++++....+..+ ..+.++++++++++++  @++..+.++++.+..+.+....+...++++  $.+..+.+++...+",
"                                                                                                                                ",
" +.+++.+..+.++.++++.++....$$$#.+ ............+.+.$......++$$.+.+ +$...+.....$...$..$........$..+ +.++.+++...++...+$$...++.+++++$",
" .&&%%%&%&%&%&%%&&%&&%%%%&%&%&&@ .&&&&&&&&&&&&&&&&&&&&&&&&&&&%&% .&&&%&&&&&&&&%&&&&%&&&&%&&&&&&$ .&&&&&&&&&&&&&&&&&&&%&&&&&&&&%&",
" $&%%%%#$######%%$$%$#$$@%#$#@.+ .&@$@#####@@#@@#%@$@$.$.##@@@@+ .&##%%%@%#%#%%$%$@#@##@$##$%##+ .&@%@@#%%@@@@%#$#%@$$#@%#%#%%%@",
" .&%#%%#@@%%%%#%@###%$#%##%#@%#+ +&@%%@@#@$$$@$$@@#@##%#@#@$.%#  .&@@%####%#$@#.@$##%#%%#%%$@#@+ +&%$$@%@#$%%##@##@%%$#%%##%%%#%",
" +&.#$#$#@#@%###$$@#%@$#@##$%#@. .%@%#%%@@@$#%%##$$@%@$%#@%$#@#+ +&$##$$$#$.#$$.##$#%%#$@%#%###+ +%%##%%##%#@#@@@#%$#$#%#$@$@#.$",
" .%$##$#@%%####@#@@%$####$##@#$+ +&##$###@#$##@#$@##%%%####@$#%+ +%$##%%#@#$#@##%%%@%%@@#%%##%@+ $&#%%@%#%#@%%@%$@#@$@@$@$$##@@@",
" +%%#@@#%@@%@@@%%@#@%@%@@$$##%#+ .&####%$$@#@#@#%#%#%#@$%#.$%$#+ +&##@.$#@%$@$.#$#$##@$@##$@##$. +&%%@#%%#@$@$$$@@@$@@@%$$@@$%%%",
" .&$#@%%%@##%##@@####@$%#@@@$#@  .&%%#$$$@##@$@@%#@%#@$@@$$$$#@+ .&##@$$$@@#%$$$%#$@@#.$%.#..$.+ +&#@#@@%$@%%%$@@$#.@$#@$$@###$$",
" @&#@@$$#$$@$#@@#.$$@@###@%@@$.+ .&@%$$@###$@$$$#$#%#@%%%%%%%#%+ .&%$%#%%%%%%#%##%#%@%%%#%#$###+ +&@$@@@@#@#$@#$%#$#@#%.$##%#$#@",
" $&#%@###.$@$$$$#@#%#@#%@$@%#@@+ .&%%%#$@#@%%%##%%#@%%%%#%#@###. .&@#%%%%@%$%$@##@#%%##@%@@%%%%+ .&#@#%@%%$@@@@##%%@@#%##%#&%#%#",
" +&@@#@$#$#$@@%#%#@%@##@$##%$@#+ .&@$@#@#%@##@#@###@$@#%#@#$##%. .&@@@$$%$@$$#@@@@$##$@%@$$..$@+ +&$+$$#$$.@..$@@$@$#$@$$@%#$.#$",
" .&@.@$$@$$#$%$$$###@#%$@#%%@@@+ .&.$@@@%@$$#%%#$@@###..@$#$##.. .&@#@..#@$#$##%%#$$@.$#%#$@#@#+ .&@$@%@%%@@$@$#%$@$#%##.$@$$@$$",
" .&$@%%%%%%#%%@%%%#%%%%$%%%#$$@+ $&#%%#$$%##%#%%%#@@%####@%%#$#+ +%%$###@%$@###.%#$%$%@$$@@@$#%+ +&$$%###%%%#%#%%#@##%%@@@@@@#%#",
" .&##@$$@%$$###@@%#$$@%#@#%%$%@+ +&@%#%##@@%#$#@#@#%%@##%#$$#@@. +&##@@@%@%@$$$$@#$$@%$##@#$$%%+ +%@%@$#%@@@%#%@%%#@%@#@@###%%%@",
" +#+.++.++++++ +.++....++.+ .+++  $+.++++++++.+++ +++...+ .+.+.+  $+.+.+++++++.+$.++. ++...+++++ +$++..  +++++.++++ +++ +.++++++",
"                                                                                                                                ",
"...+.+...+++.+.+ +...++.+.++..+++.+....$..+...++ ++++++.+...+.+++...+++++.++...  +.++.+++.+..+.+.+...$++++.+.++  +.++..+...++.+.",
"&&&&&&&&&&&&&&&% .&&&&&&&&&&&&&&&&&&&&&&&&&%&&&$ +&%&%&&&&%&&&&&&&&&&%%&%%&&%&&# +&&%%&%&%&&%&%%&&&&&&&&%&&&&&%$ .&&%&&&&&&&&&&&",
"$$%#$@$@#%#@@%#+ .&%##%%%@%%%#@@@%@##%@#%%%##%@. .&##@#%%#@@@%@#%@@.@#%@%@%#$$.+ +&$@$$$@%$##$@@$@$#@@@#$%#$%%%. +&@#%@$%#$$@#%#",
"#$#%#%@@@%@#%%%. +&%###@%#$$$##$@$#@%$@@@%#@.@#+ +&##@#%%##$##%#@$%@#%%####$$$@+ +&#$$@#@$#@$#%#%@%@$@$#$$$$$@++ +%#@%##@@@%@%%@",
"#%#%##%@%#%#%$#. .&#%%#%$%#@@#@#%@$@%@%#%@#@@#%. .&%#%#%#$@###%#@##%%%#%%#%$@%@. .%#@%#%%%%%%#%#%%#%@%%##@#####+ .&#%@%%#@@%%@@%",
"@@#$$$#.@@#$#@@+ +&$###$#@%@#@$##.$@%@$@$$#@@@#. .&#$@@##$%%%#%#%#%$#$##%#%##@@+ $&#%##$@#@##@#%%$##%%$##@@@#@%+ .&%%%%@@$@#@@@.",
"$@#$#$$#$%##%##+ .&@%%#@%%##%%%%%#%%@###$$%#%##+ .&$#%$%$$$@%$$$@##.#@@$##@@##$. +&@$.@$@#$$$.$.@#$.#...@$$$#$@+ .%#@.$$$@%$$$%#",
"##%#%%%&%@@@$@#. .&%%%$#%@@%####@%%#%%#@%%##@@%+ .%@#%######%%%%%%#@#%#@%#%%@@%. +&#%##@%%#%#@#$@@#@#@@%$$%%#$$. .&#@$$#@%%$$@#%",
"%$$###@%@@@##$.+ .&#%##@%%%%#$#@#%$##%@%$@##$@@+ +&@%###@#@@%.@@%#$$@%@#@#$@#$%  +&$##@#%#####%#%#####%#%%%%#@#. +&@%@$@##@#@##@",
"#$@$%#@%%$@%#@@+ .%%#..$@#@$$$$$%#$#@%$#@%%%@@#. .&@@$#@#%##%#@$@###%%%#%@%$#@@+ +&%@@%##@#%%%%%##%#@%%%##%@###. +&$#$$$$@%##%#$",
"%%@%%$##@%#%##@+ +&@#$@#%@%%#%@#@@$#%%@%%%@###@+ .&#%#%%#%@%###%##$##@##%@@%@%%+ +&@%@$#$##%@@@#$$%$@%%#@@%##@#. +&%#$@%##%@@$##",
"$%$#%@##@@#@##%+ +&@@@##%#@@##@####$$.@.#@@%$#$+ +&$$$@#@##$@#@@%##@#$$@#####@%. @&%%$#%#%%#$##%#%%@#@%%$%%%@@%+ +&%#@%&%%@#%#@$",
"@%@@#$##%%#####+ .&%##%#@%#@@$##%$@$#$$$$$@#@#$+ +&$@##@$@@@#%%$@#@@$####@#$$$@+ +&@###%#@@$$$%%$@%%@#%%%@#$$.#+ +&%@$@##$@#%%##",
"@%$@@@#%$#%#@##. +&@$###%@@$@###%#@@@#%@&%@#.$#. .&#%##$##@#@$$#$##$$##@@$%%@#@+ +%%#$#$.$#$@@$#$%$.@$$$@@$.@$@  +&#@$#%@@@@##@%",
"##@$$$#%$@#.#@@. +%$#@$@@@@$$%%#@$@#$##$%#.@#$@+ .&@#%##$#%$#%#@%$@#$$@#@%#%@$$+ +%##.@$@#.@%%$$$##$###$.@#$.$#. +%##$%%#$#@$@@#"};
